<?xml version="1.0" standalone="no"?>
<!DOCTYPE svg PUBLIC "-//W3C//DTD SVG 20010904//EN"
 "http://www.w3.org/TR/2001/REC-SVG-20010904/DTD/svg10.dtd">
<svg version="1.0" xmlns="http://www.w3.org/2000/svg"
 width="490.000000pt" height="613.000000pt" viewBox="0 0 490.000000 613.000000"
 preserveAspectRatio="xMidYMid meet">
<metadata>
Created by potrace 1.15, written by Peter Selinger 2001-2017
</metadata>
<g transform="translate(0.000000,613.000000) scale(0.100000,-0.100000)"
fill="#000000" stroke="none">
<path d="M0 4380 l0 -1750 280 2 280 3 0 1668 0 1667 345 0 345 0 0 -1670 0
-1670 1175 0 1175 0 0 1670 0 1670 340 0 340 0 0 -1670 0 -1670 310 0 310 0 0
1750 0 1750 -2450 0 -2450 0 0 -1750z m1728 -108 l2 -1582 -182 2 -183 3 -3
1570 c-1 864 0 1576 3 1583 3 10 46 12 182 10 l178 -3 3 -1583z m1760 0 l2
-1582 -182 2 -183 3 -3 1570 c-1 864 0 1576 3 1583 3 10 46 12 182 10 l178 -3
3 -1583z m-1458 48 l0 -1401 -97 3 -98 3 -3 1398 -2 1397 100 0 100 0 0 -1400z
m1000 0 l0 -1401 -97 3 -98 3 -2 1389 c-2 764 0 1392 3 1397 3 5 48 9 100 9
l94 0 0 -1400z m-285 -5 l0 -1280 -42 -3 -43 -3 0 1279 c0 703 2 1281 5 1284
3 3 22 5 43 4 l37 -1 0 -1280z m-545 -5 l0 -1280 -45 0 -45 0 0 1280 0 1280
45 0 45 0 0 -1280z m320 -1140 l0 -90 -95 0 -95 0 0 90 0 90 95 0 95 0 0 -90z"/>
<path d="M0 1893 c0 -583 4 -632 50 -728 48 -100 87 -129 324 -245 291 -143
867 -400 1718 -766 l357 -153 68 28 c438 182 1628 718 1960 882 297 147 339
186 394 369 23 73 23 87 27 618 l3 542 -2450 0 -2451 0 0 -547z m2011 221
c173 -55 232 -248 112 -368 -20 -20 -40 -36 -45 -36 -18 0 -6 -20 20 -34 140
-72 165 -275 47 -389 -69 -67 -158 -96 -296 -97 -116 0 -200 26 -264 82 -59
52 -85 106 -85 178 0 87 42 155 126 207 18 11 17 13 -18 42 -109 92 -106 264
5 355 97 79 259 103 398 60z m2236 0 c73 -20 132 -68 168 -138 25 -51 30 -70
29 -135 0 -65 -5 -86 -34 -146 -34 -70 -117 -164 -220 -248 l-45 -36 158 -1
157 0 0 -105 0 -105 -337 2 -338 3 -2 75 -3 75 116 100 c278 240 344 349 265
437 -28 32 -32 33 -108 33 -70 0 -84 -3 -136 -33 l-57 -32 -10 22 c-38 92 -59
152 -54 159 7 13 90 53 139 69 94 31 211 32 312 4z m-3347 -454 l0 -460 -125
0 -125 0 0 345 c0 190 -3 345 -6 345 -4 0 -42 -16 -86 -36 -44 -20 -84 -32
-88 -28 -9 10 -44 174 -38 179 2 2 59 28 128 59 l125 55 108 0 107 1 0 -460z
m2430 380 c0 -92 14 -59 -221 -537 l-147 -303 -131 0 c-78 0 -131 4 -131 10 0
5 35 76 78 157 44 81 121 229 172 328 51 99 97 184 101 190 5 5 9 13 9 17 0 4
-91 9 -202 10 l-203 3 -3 89 c-2 49 -1 95 2 103 4 10 71 13 341 13 l335 0 0
-80z"/>
<path d="M1781 1944 c-46 -58 -19 -129 65 -169 33 -15 36 -15 63 5 39 27 57
80 42 122 -19 54 -38 68 -97 68 -45 0 -56 -4 -73 -26z"/>
<path d="M1783 1555 c-34 -34 -35 -38 -31 -92 4 -48 10 -61 38 -86 29 -26 38
-29 83 -24 39 3 56 11 74 31 49 57 20 151 -58 191 -43 23 -68 18 -106 -20z"/>
</g>
</svg>
